<svg width="21" height="25" viewBox="0 0 21 25" fill="none" xmlns="http://www.w3.org/2000/svg">
<path d="M16.848 23.04C15.5472 24.3023 14.112 24.1057 12.744 23.5103C11.2896 22.9032 9.95997 22.8648 8.42397 23.5103C6.51117 24.336 5.49597 24.096 4.34397 23.04C-2.16003 16.344 -1.20003 6.14399 6.19197 5.75999C7.98477 5.85599 9.23997 6.75119 10.296 6.82559C11.8656 6.50639 13.368 5.59199 15.048 5.71199C17.0663 5.87519 18.576 6.67199 19.584 8.10479C15.432 10.6008 16.416 16.0728 20.2296 17.6088C19.4663 19.6128 18.4871 21.5928 16.8456 23.0568L16.848 23.04ZM10.152 5.68799C9.95757 2.71199 12.3696 0.263987 15.144 0.0239868C15.5256 3.45599 12.024 6.02399 10.152 5.68799Z" fill="black"/>
</svg>
